HIERARCHY
ROOT Hips
{
	OFFSET 0.000000 92.661156 0.000000
	CHANNELS 6 Xposition Yposition Zposition Xrotation Yrotation Zrotation 
	JOINT Spine
	{
		OFFSET 0.000000 8.600700 -0.340700
		CHANNELS 3 Xrotation Yrotation Zrotation
		JOINT Spine1
		{
			OFFSET 0.000000 7.167277 -0.283933
			CHANNELS 3 Xrotation Yrotation Zrotation
			JOINT Spine1_split
			{
				OFFSET 0.000000 7.167277 -0.283933
				CHANNELS 3 Xrotation Yrotation Zrotation
				JOINT Spine2
				{
					OFFSET 0.000000 7.167277 -0.283933
					CHANNELS 3 Xrotation Yrotation Zrotation
					JOINT Neck
					{
						OFFSET 0.000000 12.901077 -0.511079
						CHANNELS 3 Xrotation Yrotation Zrotation
						JOINT Head
						{
							OFFSET 0.000000 17.330292 0.169800
							CHANNELS 3 Xrotation Yrotation Zrotation
							JOINT HeadTop_End
							{
								OFFSET 0.000000 25.253006 0.449800
								CHANNELS 3 Xrotation Yrotation Zrotation
								End Site
								{
									OFFSET 0.000000 0.000000 0.000000
								}
							}
						}
					}
					JOINT LeftShoulder
					{
						OFFSET 3.788200 5.290627 -0.235409
						CHANNELS 3 Xrotation Yrotation Zrotation
						JOINT LeftShoulder_split
						{
							OFFSET 3.788200 5.290627 -0.235409
							CHANNELS 3 Xrotation Yrotation Zrotation
							JOINT LeftArm
							{
								OFFSET 14.492776 -4.330338 0.080513
								CHANNELS 3 Xrotation Yrotation Zrotation
								JOINT LeftForeArm
								{
									OFFSET 24.772102 0.000000 0.000001
									CHANNELS 3 Xrotation Yrotation Zrotation
									JOINT LeftHand
									{
										OFFSET 30.634605 0.000000 0.000001
										CHANNELS 3 Xrotation Yrotation Zrotation
										JOINT LeftHandThumb1
										{
											OFFSET 3.322998 -1.480820 3.892684
											CHANNELS 3 Xrotation Yrotation Zrotation
											JOINT LeftHandThumb2
											{
												OFFSET 3.301682 -1.906227 1.906227
												CHANNELS 3 Xrotation Yrotation Zrotation
												JOINT LeftHandThumb3
												{
													OFFSET 4.058510 -2.343185 2.343183
													CHANNELS 3 Xrotation Yrotation Zrotation
													JOINT LeftHandThumb4
													{
														OFFSET 3.530258 -2.038193 2.038196
														CHANNELS 3 Xrotation Yrotation Zrotation
														End Site
														{
															OFFSET 0.000000 0.000000 0.000000
														}
													}
												}
											}
										}
										JOINT LeftHandIndex1
										{
											OFFSET 10.849342 -0.216278 3.292529
											CHANNELS 3 Xrotation Yrotation Zrotation
											JOINT LeftHandIndex2
											{
												OFFSET 4.927605 0.000000 0.000000
												CHANNELS 3 Xrotation Yrotation Zrotation
												JOINT LeftHandIndex3
												{
													OFFSET 4.929016 0.000000 0.000000
													CHANNELS 3 Xrotation Yrotation Zrotation
													JOINT LeftHandIndex4
													{
														OFFSET 3.938446 0.000000 0.000000
														CHANNELS 3 Xrotation Yrotation Zrotation
														End Site
														{
															OFFSET 0.000000 0.000000 0.000000
														}
													}
												}
											}
										}
										JOINT LeftHandMiddle1
										{
											OFFSET 10.448532 0.000000 0.000000
											CHANNELS 3 Xrotation Yrotation Zrotation
											JOINT LeftHandMiddle2
											{
												OFFSET 5.230713 0.000000 0.000000
												CHANNELS 3 Xrotation Yrotation Zrotation
												JOINT LeftHandMiddle3
												{
													OFFSET 5.101120 0.000000 0.000000
													CHANNELS 3 Xrotation Yrotation Zrotation
													JOINT LeftHandMiddle4
													{
														OFFSET 4.284767 0.000000 0.000000
														CHANNELS 3 Xrotation Yrotation Zrotation
														End Site
														{
															OFFSET 0.000000 0.000000 0.000000
														}
													}
												}
											}
										}
										JOINT LeftHandRing1
										{
											OFFSET 10.036697 -0.428497 -3.199690
											CHANNELS 3 Xrotation Yrotation Zrotation
											JOINT LeftHandRing2
											{
												OFFSET 5.001900 0.000000 0.000000
												CHANNELS 3 Xrotation Yrotation Zrotation
												JOINT LeftHandRing3
												{
													OFFSET 4.631409 0.000000 0.000000
													CHANNELS 3 Xrotation Yrotation Zrotation
													JOINT LeftHandRing4
													{
														OFFSET 3.923203 0.000000 0.000000
														CHANNELS 3 Xrotation Yrotation Zrotation
														End Site
														{
															OFFSET 0.000000 0.000000 0.000000
														}
													}
												}
											}
										}
										JOINT LeftHandPinky1
										{
											OFFSET 8.103996 -0.005463 -4.958908
											CHANNELS 3 Xrotation Yrotation Zrotation
											JOINT LeftHandPinky2
											{
												OFFSET 5.207626 0.000000 0.000000
												CHANNELS 3 Xrotation Yrotation Zrotation
												JOINT LeftHandPinky3
												{
													OFFSET 4.089874 0.000000 0.000000
													CHANNELS 3 Xrotation Yrotation Zrotation
													JOINT LeftHandPinky4
													{
														OFFSET 3.375877 0.000000 0.000000
														CHANNELS 3 Xrotation Yrotation Zrotation
														End Site
														{
															OFFSET 0.000000 0.000000 0.000000
														}
													}
												}
											}
										}
									}
								}
							}
						}
					}
					JOINT RightShoulder
					{
						OFFSET -3.788200 5.290580 -0.275689
						CHANNELS 3 Xrotation Yrotation Zrotation
						JOINT RightShoulder_split
						{
							OFFSET -3.788200 5.290580 -0.275689
							CHANNELS 3 Xrotation Yrotation Zrotation
							JOINT RightArm
							{
								OFFSET -14.492803 -4.330246 -0.080524
								CHANNELS 3 Xrotation Yrotation Zrotation
								JOINT RightForeArm
								{
									OFFSET -24.772099 0.000000 0.000001
									CHANNELS 3 Xrotation Yrotation Zrotation
									JOINT RightHand
									{
										OFFSET -30.639809 0.000000 0.000002
										CHANNELS 3 Xrotation Yrotation Zrotation
										JOINT RightHandThumb1
										{
											OFFSET -3.507294 -1.655342 3.790413
											CHANNELS 3 Xrotation Yrotation Zrotation
											JOINT RightHandThumb2
											{
												OFFSET -3.360497 -1.940186 1.940185
												CHANNELS 3 Xrotation Yrotation Zrotation
												JOINT RightHandThumb3
												{
													OFFSET -4.025208 -2.323959 2.323956
													CHANNELS 3 Xrotation Yrotation Zrotation
													JOINT RightHandThumb4
													{
														OFFSET -3.461601 -1.998558 1.998558
														CHANNELS 3 Xrotation Yrotation Zrotation
														End Site
														{
															OFFSET 0.000000 0.000000 0.000000
														}
													}
												}
											}
										}
										JOINT RightHandIndex1
										{
											OFFSET -11.045464 -0.146271 3.003679
											CHANNELS 3 Xrotation Yrotation Zrotation
											JOINT RightHandIndex2
											{
												OFFSET -5.131828 0.000000 0.000000
												CHANNELS 3 Xrotation Yrotation Zrotation
												JOINT RightHandIndex3
												{
													OFFSET -4.796227 0.000000 0.000000
													CHANNELS 3 Xrotation Yrotation Zrotation
													JOINT RightHandIndex4
													{
														OFFSET -4.077904 0.000000 0.000000
														CHANNELS 3 Xrotation Yrotation Zrotation
														End Site
														{
															OFFSET 0.000000 0.000000 0.000000
														}
													}
												}
											}
										}
										JOINT RightHandMiddle1
										{
											OFFSET -10.374084 0.000000 0.000000
											CHANNELS 3 Xrotation Yrotation Zrotation
											JOINT RightHandMiddle2
											{
												OFFSET -5.356903 0.000000 0.000000
												CHANNELS 3 Xrotation Yrotation Zrotation
												JOINT RightHandMiddle3
												{
													OFFSET -5.191803 0.000000 0.000000
													CHANNELS 3 Xrotation Yrotation Zrotation
													JOINT RightHandMiddle4
													{
														OFFSET -4.162704 0.000000 0.000000
														CHANNELS 3 Xrotation Yrotation Zrotation
														End Site
														{
															OFFSET 0.000000 0.000000 0.000000
														}
													}
												}
											}
										}
										JOINT RightHandRing1
										{
											OFFSET -9.630859 -0.277283 -3.149876
											CHANNELS 3 Xrotation Yrotation Zrotation
											JOINT RightHandRing2
											{
												OFFSET -5.180817 0.000000 0.000000
												CHANNELS 3 Xrotation Yrotation Zrotation
												JOINT RightHandRing3
												{
													OFFSET -4.740578 0.000000 0.000000
													CHANNELS 3 Xrotation Yrotation Zrotation
													JOINT RightHandRing4
													{
														OFFSET -4.011124 0.000000 0.000000
														CHANNELS 3 Xrotation Yrotation Zrotation
														End Site
														{
															OFFSET 0.000000 0.000000 0.000000
														}
													}
												}
											}
										}
										JOINT RightHandPinky1
										{
											OFFSET -8.537476 -0.025681 -5.717695
											CHANNELS 3 Xrotation Yrotation Zrotation
											JOINT RightHandPinky2
											{
												OFFSET -4.854950 0.000000 0.000000
												CHANNELS 3 Xrotation Yrotation Zrotation
												JOINT RightHandPinky3
												{
													OFFSET -3.856483 0.000000 0.000000
													CHANNELS 3 Xrotation Yrotation Zrotation
													JOINT RightHandPinky4
													{
														OFFSET -3.016380 0.000000 0.000000
														CHANNELS 3 Xrotation Yrotation Zrotation
														End Site
														{
															OFFSET 0.000000 0.000000 0.000000
														}
													}
												}
											}
										}
									}
								}
							}
						}
					}
				}
			}
		}
	}
	JOINT LeftUpLeg
	{
		OFFSET 10.333600 -4.771301 0.200300
		CHANNELS 3 Xrotation Yrotation Zrotation
		JOINT LeftLeg
		{
			OFFSET -0.039310 -39.946499 -3.314672
			CHANNELS 3 Xrotation Yrotation Zrotation
			JOINT LeftFoot
			{
				OFFSET 0.039316 -38.752296 -6.562774
				CHANNELS 3 Xrotation Yrotation Zrotation
				JOINT LeftToeBase
				{
					OFFSET 0.252044 -8.829344 16.191711
					CHANNELS 3 Xrotation Yrotation Zrotation
					JOINT LeftToe_End
					{
						OFFSET 0.124490 0.008314 8.117143
						CHANNELS 3 Xrotation Yrotation Zrotation
						End Site
						{
							OFFSET 0.000000 0.000000 0.000000
						}
					}
				}
			}
		}
	}
	JOINT RightUpLeg
	{
		OFFSET -10.333600 -4.771301 0.752800
		CHANNELS 3 Xrotation Yrotation Zrotation
		JOINT RightLeg
		{
			OFFSET 0.039295 -39.946587 -3.844795
			CHANNELS 3 Xrotation Yrotation Zrotation
			JOINT RightFoot
			{
				OFFSET -0.039304 -38.753475 -6.471369
				CHANNELS 3 Xrotation Yrotation Zrotation
				JOINT RightToeBase
				{
					OFFSET -0.251556 -8.826419 16.120266
					CHANNELS 3 Xrotation Yrotation Zrotation
					JOINT RightToe_End
					{
						OFFSET -0.124249 0.009768 8.077740
						CHANNELS 3 Xrotation Yrotation Zrotation
						End Site
						{
							OFFSET 0.000000 0.000000 0.000000
						}
					}
				}
			}
		}
	}
}
MOTION
Frames: 4
Frame Time: 0.016667
78.091774 112.355362 32.449169 0.369992 -39.290964 -198.159156 2.131632 -9.437053 -7.923994 -1.517949 -3.039237 -6.675959 0.000000 0.000000 0.000000 -1.580112 -2.606181 -6.861665 -13.490911 -1.279797 -4.238841 -48.813853 -29.031951 -16.772793 -0.000001 0.000000 -0.000000 4.497694 -16.632330 12.599310 0.000000 0.000000 0.000000 -51.679421 -54.464034 -12.252779 0.000033 -117.702574 0.000002 32.570153 -36.646724 -0.196005 -89.712185 43.771722 -8.246951 -18.896470 27.219916 42.993524 -18.239658 -7.571209 18.005777 0.000001 -0.000002 0.000000 2.484999 -5.443838 -39.684714 1.035659 3.327603 -34.567348 0.414677 2.166711 -21.666221 0.000001 -0.000001 -0.000001 1.277067 5.998242 -45.137879 2.785761 4.986223 -58.361890 1.717760 4.144938 -45.005742 0.000001 -0.000000 -0.000000 0.540002 5.877390 -57.550505 3.175825 5.205563 -62.751673 2.114017 4.505370 -50.256365 -0.000000 -0.000000 -0.000000 -1.630736 5.617591 -67.915310 3.038108 5.132597 -61.222988 3.727980 5.453558 -68.690584 -0.000000 0.000000 0.000001 -5.964026 -7.867860 -22.182800 0.000000 0.000000 0.000000 -104.091550 -16.360241 38.731455 -0.000010 39.360253 0.000023 61.024168 -6.804958 -76.642680 -67.265506 3.461460 8.257527 4.802878 -17.426879 -5.644568 -8.794904 2.731485 -14.895104 0.000002 0.000000 -0.000002 2.343822 5.006621 -15.621408 0.027416 -0.505185 6.213882 0.066820 0.786915 -9.706998 0.000000 0.000000 0.000000 -0.317363 -2.706314 -17.726663 0.018313 -0.413004 5.076757 0.034569 -0.567058 6.978315 0.000000 0.000000 -0.000000 -0.997254 -5.561629 -15.226792 0.001315 -0.110900 1.361493 0.024193 -0.474585 5.835923 -0.000000 -0.000000 0.000001 -4.892780 -9.670139 -16.958972 0.001237 -0.107439 1.319167 0.034754 -0.568554 6.996970 0.000002 -0.000001 0.000000 -63.894138 -14.473652 52.734917 -0.519008 8.123964 8.066381 -0.807389 16.671290 2.920651 20.032670 -0.000048 -0.000005 0.000000 -0.000001 0.000000 20.419129 4.471185 -31.246312 82.493222 14.508992 -4.837613 48.132374 10.925246 20.658771 7.738732 0.000002 0.000010 -0.000003 0.000003 -0.000004 
78.533066 111.949867 32.714363 0.510765 -39.540197 -198.251527 1.974022 -10.532170 -8.564022 -1.670251 -3.215803 -6.641742 0.000000 0.000000 0.000000 -1.736127 -2.785288 -6.832908 -13.218253 -1.234651 -4.330684 -48.465243 -29.140620 -15.076630 -0.000000 0.000001 0.000000 4.614918 -16.598990 12.950110 0.000000 0.000000 0.000000 -48.703852 -53.802513 -9.753678 0.000022 -119.228042 0.000022 33.340759 -36.320501 -0.355406 -89.724445 43.607035 -7.995585 -20.016947 28.252943 44.068363 -18.298572 -8.098984 17.637893 0.000002 -0.000003 -0.000003 2.407837 -5.387106 -40.896635 1.082901 3.394980 -35.372624 0.423948 2.189911 -21.910516 0.000000 0.000001 0.000001 1.443108 6.184720 -46.748601 2.897527 5.053135 -59.639252 1.783591 4.209567 -45.909608 0.000001 0.000000 0.000001 0.645864 6.043012 -59.408323 3.304514 5.269563 -64.161035 2.199186 4.574608 -51.332188 0.000001 0.000000 0.000000 -1.917101 5.649289 -69.199864 3.200519 5.218147 -63.023494 3.841341 5.496244 -69.878825 -0.000001 -0.000000 0.000001 -6.055319 -7.942193 -22.052367 0.000000 0.000000 0.000000 -103.282412 -16.433749 40.337625 0.000007 37.509828 -0.000008 60.236251 -6.723313 -78.242604 -67.281434 3.447535 8.282409 4.801869 -17.417399 -5.643338 -8.794482 2.734251 -14.895321 -0.000003 0.000002 -0.000000 2.353597 5.004244 -15.696015 0.027423 -0.505202 6.213877 0.066822 0.786931 -9.706998 0.000000 -0.000001 0.000000 -0.316133 -2.702431 -17.726622 0.018309 -0.413013 5.076825 0.034571 -0.567054 6.978308 0.000000 0.000000 -0.000001 -1.001919 -5.549237 -15.321950 0.001323 -0.110908 1.361769 0.024192 -0.474577 5.835957 -0.000000 0.000000 -0.000001 -4.894391 -9.667963 -16.959220 0.001238 -0.107463 1.319179 0.034764 -0.568541 6.996978 0.000000 0.000000 -0.000001 -64.014459 -14.514818 53.326241 -0.625173 8.217291 7.826401 -1.759018 17.155632 4.452151 19.985984 -0.000022 -0.000008 -0.000002 0.000000 -0.000000 18.907948 4.185991 -30.686449 83.860926 14.349073 -4.495050 51.127060 9.793995 21.947718 7.902159 -0.000023 0.000001 -0.000004 0.000001 0.000001 
78.920120 111.774864 32.957199 0.975352 -39.842177 -198.140960 2.203992 -11.145486 -9.092719 -1.736338 -3.273611 -6.542642 0.000000 0.000000 0.000000 -1.798171 -2.853363 -6.731595 -13.018567 -1.212946 -4.434705 -48.559821 -29.134332 -13.938554 0.000001 -0.000000 -0.000001 4.741736 -16.551790 13.346564 0.000000 0.000000 0.000000 -46.000095 -53.049352 -7.477605 -0.000012 -120.483581 -0.000016 34.146301 -35.910119 -0.351425 -89.737327 43.444511 -7.753783 -21.085033 29.172257 45.091830 -18.357855 -8.587525 17.303355 0.000002 0.000001 0.000002 2.338837 -5.332132 -41.999342 1.126557 3.455547 -36.103461 0.432349 2.210731 -22.129833 -0.000000 0.000000 0.000001 1.601071 6.349570 -48.217044 3.000050 5.111582 -60.796593 1.844108 4.267182 -46.728442 0.000001 0.000000 0.000000 0.747353 6.191391 -61.100188 3.422410 5.324831 -65.438028 2.277470 4.635951 -52.307064 -0.000001 0.000000 0.000000 -2.181665 5.689175 -70.360661 3.350504 5.291511 -64.660895 3.944068 5.532598 -70.947750 -0.000000 0.000000 -0.000000 -6.100209 -7.964677 -22.242752 0.000000 0.000000 0.000000 -102.952063 -16.696575 40.999867 0.000003 36.177521 0.000001 59.845762 -6.547176 -79.251313 -67.278921 3.447505 8.283224 4.801839 -17.417483 -5.643241 -8.793945 2.735811 -14.895772 0.000002 0.000001 0.000003 2.358222 5.002876 -15.728211 0.027421 -0.505200 6.213892 0.066822 0.786924 -9.706998 0.000000 -0.000000 -0.000000 -0.315645 -2.700881 -17.726627 0.018310 -0.413029 5.076919 0.034574 -0.567050 6.978307 0.000000 0.000001 0.000001 -1.003239 -5.542897 -15.358051 0.001324 -0.110943 1.362038 0.024186 -0.474587 5.835986 0.000000 0.000000 -0.000001 -4.902588 -9.664024 -16.960528 0.001238 -0.107453 1.319173 0.034765 -0.568556 6.996985 0.000000 -0.000001 -0.000000 -63.940447 -14.174434 53.763971 -0.786738 8.372028 7.486164 -2.661299 17.430486 5.682095 19.553945 -0.000011 0.000012 -0.000004 -0.000000 0.000000 17.336065 3.705135 -30.307988 85.381722 13.370252 -4.065357 51.099200 9.378657 22.738620 7.025318 0.000016 0.000016 -0.000000 -0.000000 0.000001 
79.151718 111.776108 33.279625 1.315866 -40.218882 -197.970643 2.630336 -11.256574 -9.421536 -1.735353 -3.206570 -6.419233 0.000000 0.000000 0.000000 -1.787337 -2.800325 -6.599713 -12.952234 -1.223482 -4.514344 -48.981462 -29.051240 -13.952869 -0.000000 -0.000001 0.000001 4.789819 -16.460838 13.497851 0.000000 0.000000 0.000000 -44.318277 -52.531600 -6.167748 0.000045 -121.261512 0.000025 34.785617 -35.472048 -0.171680 -89.750407 43.287376 -7.524869 -22.086078 29.982492 46.048162 -18.415715 -9.035120 17.005501 0.000001 -0.000007 0.000002 2.277682 -5.279639 -42.992219 1.166415 3.509458 -36.759870 0.439928 2.229199 -22.324736 -0.000000 0.000000 -0.000001 1.748811 6.493886 -49.541654 3.092994 5.162207 -61.834420 1.899072 4.318128 -47.462599 0.000000 0.000001 0.000002 0.842958 6.322978 -62.624823 3.529153 5.372117 -66.583129 2.348542 4.689838 -53.181362 -0.000000 -0.000000 0.000000 -2.422904 5.734059 -71.399055 3.487184 5.353825 -66.134372 4.035761 5.563289 -71.895985 0.000001 -0.000000 0.000002 -6.141170 -7.981136 -22.313910 0.000000 0.000000 0.000000 -102.924394 -16.893674 40.633161 -0.000008 36.628255 0.000019 59.982947 -6.652601 -78.790439 -67.278244 3.448066 8.284526 4.801832 -17.417462 -5.643138 -8.793492 2.737129 -14.896197 -0.000000 0.000000 0.000001 2.360785 5.001979 -15.742903 0.027420 -0.505188 6.213894 0.066821 0.786938 -9.707012 -0.000000 0.000000 -0.000000 -0.315390 -2.700076 -17.726646 0.018309 -0.413025 5.076994 0.034573 -0.567038 6.978308 0.000000 -0.000000 -0.000001 -1.003503 -5.538766 -15.374349 0.001327 -0.110960 1.362303 0.024186 -0.474577 5.836037 0.000000 -0.000000 0.000001 -4.906012 -9.662074 -16.961048 0.001238 -0.107466 1.319170 0.034759 -0.568556 6.996957 0.000000 -0.000002 0.000001 -63.832899 -14.381189 53.693005 0.459456 8.798165 7.415108 -4.283515 17.162840 6.217266 19.539312 -0.000001 0.000009 -0.000001 -0.000001 -0.000001 15.760583 2.735091 -29.985538 86.693235 13.003805 -3.523935 49.536814 9.023432 22.732855 5.258302 0.000003 -0.000010 -0.000001 -0.000001 0.000002 
